<svg width="344" height="346" viewBox="0 0 344 346" fill="none" xmlns="http://www.w3.org/2000/svg">
<g filter="url(#filter0_d_0_1)">
<circle cx="172" cy="174" r="100" fill="#D25E00"/>
<circle cx="172" cy="174" r="99.5" stroke="#D25E00"/>
</g>
<path d="M121.828 191V161H127.414L145.559 185.473L163.43 161H169.016V191H165.266V164.398L147.355 189.027H143.957L125.578 164.398V191H121.828ZM176.594 191V161H180.344V191H176.594ZM186.594 176.391V175.609C186.594 172.953 186.724 170.727 186.984 168.93C187.245 167.12 187.694 165.648 188.332 164.516C188.97 163.383 189.836 162.517 190.93 161.918C192.036 161.319 193.423 160.915 195.09 160.707C196.757 160.486 198.762 160.375 201.105 160.375H208.977C211.659 160.375 213.918 160.505 215.754 160.766C217.603 161.013 219.087 161.514 220.207 162.27C221.34 163.012 222.16 164.112 222.668 165.57C223.176 167.016 223.43 168.936 223.43 171.332H219.68C219.68 169.444 219.51 167.979 219.172 166.938C218.833 165.883 218.26 165.121 217.453 164.652C216.659 164.184 215.572 163.897 214.191 163.793C212.811 163.676 211.073 163.617 208.977 163.617H201.105C199.243 163.617 197.674 163.676 196.398 163.793C195.122 163.897 194.081 164.151 193.273 164.555C192.479 164.945 191.867 165.57 191.438 166.43C191.021 167.289 190.734 168.461 190.578 169.945C190.422 171.43 190.344 173.318 190.344 175.609V176.391C190.344 178.604 190.422 180.44 190.578 181.898C190.734 183.357 191.021 184.522 191.438 185.395C191.867 186.267 192.479 186.918 193.273 187.348C194.081 187.777 195.122 188.057 196.398 188.188C197.674 188.318 199.243 188.383 201.105 188.383H208.977C211.073 188.383 212.811 188.337 214.191 188.246C215.572 188.155 216.659 187.888 217.453 187.445C218.26 187.003 218.833 186.267 219.172 185.238C219.51 184.197 219.68 182.738 219.68 180.863H223.43C223.43 183.259 223.176 185.173 222.668 186.605C222.16 188.038 221.34 189.118 220.207 189.848C219.087 190.564 217.603 191.039 215.754 191.273C213.918 191.508 211.659 191.625 208.977 191.625H201.105C198.176 191.625 195.767 191.423 193.879 191.02C191.991 190.629 190.513 189.9 189.445 188.832C188.391 187.764 187.648 186.228 187.219 184.223C186.802 182.217 186.594 179.607 186.594 176.391Z" fill="white"/>
<defs>
<filter id="filter0_d_0_1" x="40" y="42" width="264" height="264" filterUnits="userSpaceOnUse" color-interpolation-filters="sRGB">
<feFlood flood-opacity="0" result="BackgroundImageFix"/>
<feColorMatrix in="SourceAlpha" type="matrix" values="0 0 0 0 0 0 0 0 0 0 0 0 0 0 0 0 0 0 127 0" result="hardAlpha"/>
<feMorphology radius="10" operator="dilate" in="SourceAlpha" result="effect1_dropShadow_0_1"/>
<feOffset/>
<feGaussianBlur stdDeviation="11"/>
<feComposite in2="hardAlpha" operator="out"/>
<feColorMatrix type="matrix" values="0 0 0 0 0.823449 0 0 0 0 0.370552 0 0 0 0 0 0 0 0 1 0"/>
<feBlend mode="normal" in2="BackgroundImageFix" result="effect1_dropShadow_0_1"/>
<feBlend mode="normal" in="SourceGraphic" in2="effect1_dropShadow_0_1" result="shape"/>
</filter>
</defs>
</svg>
