<svg width="730" height="340" viewBox="0 0 730 340" fill="none" xmlns="http://www.w3.org/2000/svg">
<path d="M174.25 227V131H192.125L250.188 209.312L307.375 131H325.25V227H313.25V141.875L255.938 220.688H245.062L186.25 141.875V227H174.25Z" fill="white"/>
<path d="M360 227V155H369V227H360Z" fill="white"/>
<path d="M400 180.25V177.75C400 169.25 400.417 162.125 401.25 156.375C402.083 150.583 403.521 145.875 405.562 142.25C407.604 138.625 410.375 135.854 413.875 133.938C417.417 132.021 421.854 130.729 427.188 130.062C432.521 129.354 438.938 129 446.438 129H471.625C480.208 129 487.438 129.417 493.312 130.25C499.229 131.042 503.979 132.646 507.562 135.062C511.188 137.438 513.812 140.958 515.438 145.625C517.062 150.25 517.875 156.396 517.875 164.062H505.875C505.875 158.021 505.333 153.333 504.25 150C503.167 146.625 501.333 144.188 498.75 142.688C496.208 141.188 492.729 140.271 488.312 139.938C483.896 139.562 478.333 139.375 471.625 139.375H446.438C440.479 139.375 435.458 139.562 431.375 139.938C427.292 140.271 423.958 141.083 421.375 142.375C418.833 143.625 416.875 145.625 415.5 148.375C414.167 151.125 413.25 154.875 412.75 159.625C412.25 164.375 412 170.417 412 177.75V180.25C412 187.333 412.25 193.208 412.75 197.875C413.25 202.542 414.167 206.271 415.5 209.062C416.875 211.854 418.833 213.938 421.375 215.312C423.958 216.688 427.292 217.583 431.375 218C435.458 218.417 440.479 218.625 446.438 218.625H471.625C478.333 218.625 483.896 218.479 488.312 218.188C492.729 217.896 496.208 217.042 498.75 215.625C501.333 214.208 503.167 211.854 504.25 208.562C505.333 205.229 505.875 200.562 505.875 194.562H517.875C517.875 202.229 517.062 208.354 515.438 212.938C513.812 217.521 511.188 220.979 507.562 223.312C503.979 225.604 499.229 227.125 493.312 227.875C487.438 228.625 480.208 229 471.625 229H446.438C437.062 229 429.354 228.354 423.312 227.062C417.271 225.812 412.542 223.479 409.125 220.062C405.75 216.646 403.375 211.729 402 205.312C400.667 198.896 400 190.542 400 180.25Z" fill="white"/>
<g filter="url(#filter0_d_0_1)">
<circle cx="364.5" cy="135.5" r="12.5" fill="#D25E00"/>
<circle cx="364.5" cy="135.5" r="12" stroke="#D25E00"/>
</g>
<defs>
<filter id="filter0_d_0_1" x="317" y="88" width="95" height="95" filterUnits="userSpaceOnUse" color-interpolation-filters="sRGB">
<feFlood flood-opacity="0" result="BackgroundImageFix"/>
<feColorMatrix in="SourceAlpha" type="matrix" values="0 0 0 0 0 0 0 0 0 0 0 0 0 0 0 0 0 0 127 0" result="hardAlpha"/>
<feMorphology radius="10" operator="dilate" in="SourceAlpha" result="effect1_dropShadow_0_1"/>
<feOffset/>
<feGaussianBlur stdDeviation="12.5"/>
<feComposite in2="hardAlpha" operator="out"/>
<feColorMatrix type="matrix" values="0 0 0 0 0.823449 0 0 0 0 0.370552 0 0 0 0 0 0 0 0 1 0"/>
<feBlend mode="normal" in2="BackgroundImageFix" result="effect1_dropShadow_0_1"/>
<feBlend mode="normal" in="SourceGraphic" in2="effect1_dropShadow_0_1" result="shape"/>
</filter>
</defs>
</svg>
